<?xml version="1.0" encoding="UTF-8" standalone="no"?>
<!DOCTYPE svg PUBLIC "-//W3C//DTD SVG 1.1//EN"
 "http://www.w3.org/Graphics/SVG/1.1/DTD/svg11.dtd">
<!-- Generated by graphviz version 2.38.0 (20140413.2041)
 -->
<!-- Title: isel input for foo:entry Pages: 1 -->
<svg width="465pt" height="395pt"
 viewBox="0.00 0.00 465.00 395.00" xmlns="http://www.w3.org/2000/svg" xmlns:xlink="http://www.w3.org/1999/xlink">
<g id="graph0" class="graph" transform="scale(1 1) rotate(0) translate(4 391)">
<title>isel input for foo:entry</title>
<polygon fill="black" stroke="none" points="-4,4 -4,-391 461,-391 461,4 -4,4"/>
<!-- Node0x4c28638 -->
<g id="node1" class="node"><title>Node0x4c28638</title>
<path fill="none" stroke="white" stroke-width="3" d="M12,-282.5C12,-282.5 193,-282.5 193,-282.5 199,-282.5 205,-288.5 205,-294.5 205,-294.5 205,-374.5 205,-374.5 205,-380.5 199,-386.5 193,-386.5 193,-386.5 12,-386.5 12,-386.5 6,-386.5 0,-380.5 0,-374.5 0,-374.5 0,-294.5 0,-294.5 0,-288.5 6,-282.5 12,-282.5"/>
<text text-anchor="middle" x="51" y="-369.7" font-family="Calibri" font-size="16.00" fill="white">0</text>
<polyline fill="none" stroke="white" stroke-width="3" points="102,-360.5 102,-386.5 "/>
<text text-anchor="middle" x="153.5" y="-369.7" font-family="Calibri" font-size="16.00" fill="white">1</text>
<polyline fill="none" stroke="white" stroke-width="3" points="0,-360.5 205,-360.5 "/>
<text text-anchor="middle" x="102.5" y="-343.7" font-family="Calibri" font-size="16.00" fill="white">CopyFromReg [ORD=1] [ID=5]</text>
<polyline fill="none" stroke="white" stroke-width="3" points="0,-334.5 205,-334.5 "/>
<text text-anchor="middle" x="102.5" y="-317.7" font-family="Calibri" font-size="16.00" fill="white">0x4c28638</text>
<polyline fill="none" stroke="white" stroke-width="3" points="0,-308.5 205,-308.5 "/>
<text text-anchor="middle" x="52.5" y="-291.7" font-family="Calibri" font-size="16.00" fill="white">i32</text>
<polyline fill="none" stroke="white" stroke-width="3" points="105,-282.5 105,-308.5 "/>
<text text-anchor="middle" x="155" y="-291.7" font-family="Calibri" font-size="16.00" fill="white">ch</text>
</g>
<!-- Node0x4c28848 -->
<g id="node2" class="node"><title>Node0x4c28848</title>
<path fill="none" stroke="white" stroke-width="3" d="M235,-282.5C235,-282.5 416,-282.5 416,-282.5 422,-282.5 428,-288.5 428,-294.5 428,-294.5 428,-374.5 428,-374.5 428,-380.5 422,-386.5 416,-386.5 416,-386.5 235,-386.5 235,-386.5 229,-386.5 223,-380.5 223,-374.5 223,-374.5 223,-294.5 223,-294.5 223,-288.5 229,-282.5 235,-282.5"/>
<text text-anchor="middle" x="274" y="-369.7" font-family="Calibri" font-size="16.00" fill="white">0</text>
<polyline fill="none" stroke="white" stroke-width="3" points="325,-360.5 325,-386.5 "/>
<text text-anchor="middle" x="376.5" y="-369.7" font-family="Calibri" font-size="16.00" fill="white">1</text>
<polyline fill="none" stroke="white" stroke-width="3" points="223,-360.5 428,-360.5 "/>
<text text-anchor="middle" x="325.5" y="-343.7" font-family="Calibri" font-size="16.00" fill="white">CopyFromReg [ORD=1] [ID=6]</text>
<polyline fill="none" stroke="white" stroke-width="3" points="223,-334.5 428,-334.5 "/>
<text text-anchor="middle" x="325.5" y="-317.7" font-family="Calibri" font-size="16.00" fill="white">0x4c28848</text>
<polyline fill="none" stroke="white" stroke-width="3" points="223,-308.5 428,-308.5 "/>
<text text-anchor="middle" x="275.5" y="-291.7" font-family="Calibri" font-size="16.00" fill="white">i32</text>
<polyline fill="none" stroke="white" stroke-width="3" points="328,-282.5 328,-308.5 "/>
<text text-anchor="middle" x="378" y="-291.7" font-family="Calibri" font-size="16.00" fill="white">ch</text>
</g>
<!-- Node0x4c28a58 -->
<g id="node3" class="node"><title>Node0x4c28a58</title>
<path fill="none" stroke="white" stroke-width="3" d="M264,-141.5C264,-141.5 445,-141.5 445,-141.5 451,-141.5 457,-147.5 457,-153.5 457,-153.5 457,-233.5 457,-233.5 457,-239.5 451,-245.5 445,-245.5 445,-245.5 264,-245.5 264,-245.5 258,-245.5 252,-239.5 252,-233.5 252,-233.5 252,-153.5 252,-153.5 252,-147.5 258,-141.5 264,-141.5"/>
<text text-anchor="middle" x="303" y="-228.7" font-family="Calibri" font-size="16.00" fill="white">0</text>
<polyline fill="none" stroke="white" stroke-width="3" points="354,-219.5 354,-245.5 "/>
<text text-anchor="middle" x="405.5" y="-228.7" font-family="Calibri" font-size="16.00" fill="white">1</text>
<polyline fill="none" stroke="white" stroke-width="3" points="252,-219.5 457,-219.5 "/>
<text text-anchor="middle" x="354.5" y="-202.7" font-family="Calibri" font-size="16.00" fill="white">CopyFromReg [ORD=1] [ID=7]</text>
<polyline fill="none" stroke="white" stroke-width="3" points="252,-193.5 457,-193.5 "/>
<text text-anchor="middle" x="354.5" y="-176.7" font-family="Calibri" font-size="16.00" fill="white">0x4c28a58</text>
<polyline fill="none" stroke="white" stroke-width="3" points="252,-167.5 457,-167.5 "/>
<text text-anchor="middle" x="304.5" y="-150.7" font-family="Calibri" font-size="16.00" fill="white">i32</text>
<polyline fill="none" stroke="white" stroke-width="3" points="357,-141.5 357,-167.5 "/>
<text text-anchor="middle" x="407" y="-150.7" font-family="Calibri" font-size="16.00" fill="white">ch</text>
</g>
<!-- Node0x4c28b60 -->
<g id="node4" class="node"><title>Node0x4c28b60</title>
<path fill="none" stroke="white" stroke-width="3" d="M105.5,-141.5C105.5,-141.5 221.5,-141.5 221.5,-141.5 227.5,-141.5 233.5,-147.5 233.5,-153.5 233.5,-153.5 233.5,-233.5 233.5,-233.5 233.5,-239.5 227.5,-245.5 221.5,-245.5 221.5,-245.5 105.5,-245.5 105.5,-245.5 99.5,-245.5 93.5,-239.5 93.5,-233.5 93.5,-233.5 93.5,-153.5 93.5,-153.5 93.5,-147.5 99.5,-141.5 105.5,-141.5"/>
<text text-anchor="middle" x="128.5" y="-228.7" font-family="Calibri" font-size="16.00" fill="white">0</text>
<polyline fill="none" stroke="white" stroke-width="3" points="163.5,-219.5 163.5,-245.5 "/>
<text text-anchor="middle" x="198.5" y="-228.7" font-family="Calibri" font-size="16.00" fill="white">1</text>
<polyline fill="none" stroke="white" stroke-width="3" points="93.5,-219.5 233.5,-219.5 "/>
<text text-anchor="middle" x="163.5" y="-202.7" font-family="Calibri" font-size="16.00" fill="white">mul [ORD=2] [ID=8]</text>
<polyline fill="none" stroke="white" stroke-width="3" points="93.5,-193.5 233.5,-193.5 "/>
<text text-anchor="middle" x="163.5" y="-176.7" font-family="Calibri" font-size="16.00" fill="white">0x4c28b60</text>
<polyline fill="none" stroke="white" stroke-width="3" points="93.5,-167.5 233.5,-167.5 "/>
<text text-anchor="middle" x="163.5" y="-150.7" font-family="Calibri" font-size="16.00" fill="white">i32</text>
</g>
<!-- Node0x4c28b60&#45;&gt;Node0x4c28638 -->
<g id="edge1" class="edge"><title>Node0x4c28b60:s0&#45;&gt;Node0x4c28638:d0</title>
<path fill="none" stroke="white" stroke-width="3" d="M128.5,-246C128.5,-279.288 68.2158,-252.191 55.0287,-272.269"/>
<polygon fill="white" stroke="white" stroke-width="3" points="51.6276,-271.441 52.5,-282 58.4026,-273.202 51.6276,-271.441"/>
</g>
<!-- Node0x4c28b60&#45;&gt;Node0x4c28848 -->
<g id="edge2" class="edge"><title>Node0x4c28b60:s1&#45;&gt;Node0x4c28848:d0</title>
<path fill="none" stroke="white" stroke-width="3" d="M234.5,-232.5C256.836,-232.5 218.887,-270.952 214.849,-287.775"/>
<polygon fill="white" stroke="white" stroke-width="3" points="212.323,-290.205 221.5,-295.5 217.628,-285.638 212.323,-290.205"/>
</g>
<!-- Node0x4c28c68 -->
<g id="node5" class="node"><title>Node0x4c28c68</title>
<path fill="none" stroke="white" stroke-width="3" d="M175.5,-0.5C175.5,-0.5 291.5,-0.5 291.5,-0.5 297.5,-0.5 303.5,-6.5 303.5,-12.5 303.5,-12.5 303.5,-92.5 303.5,-92.5 303.5,-98.5 297.5,-104.5 291.5,-104.5 291.5,-104.5 175.5,-104.5 175.5,-104.5 169.5,-104.5 163.5,-98.5 163.5,-92.5 163.5,-92.5 163.5,-12.5 163.5,-12.5 163.5,-6.5 169.5,-0.5 175.5,-0.5"/>
<text text-anchor="middle" x="198.5" y="-87.7" font-family="Calibri" font-size="16.00" fill="white">0</text>
<polyline fill="none" stroke="white" stroke-width="3" points="233.5,-78.5 233.5,-104.5 "/>
<text text-anchor="middle" x="268.5" y="-87.7" font-family="Calibri" font-size="16.00" fill="white">1</text>
<polyline fill="none" stroke="white" stroke-width="3" points="163.5,-78.5 303.5,-78.5 "/>
<text text-anchor="middle" x="233.5" y="-61.7" font-family="Calibri" font-size="16.00" fill="white">add [ORD=3] [ID=9]</text>
<polyline fill="none" stroke="white" stroke-width="3" points="163.5,-52.5 303.5,-52.5 "/>
<text text-anchor="middle" x="233.5" y="-35.7" font-family="Calibri" font-size="16.00" fill="white">0x4c28c68</text>
<polyline fill="none" stroke="white" stroke-width="3" points="163.5,-26.5 303.5,-26.5 "/>
<text text-anchor="middle" x="233.5" y="-9.7" font-family="Calibri" font-size="16.00" fill="white">i32</text>
</g>
<!-- Node0x4c28c68&#45;&gt;Node0x4c28a58 -->
<g id="edge4" class="edge"><title>Node0x4c28c68:s1&#45;&gt;Node0x4c28a58:d0</title>
<path fill="none" stroke="white" stroke-width="3" d="M304.5,-91.5C310.516,-91.5 306.487,-99.7776 303.5,-105 289.543,-129.399 265.457,-116.601 251.5,-141 250.893,-142.061 250.243,-143.248 249.644,-144.466"/>
<polygon fill="white" stroke="white" stroke-width="3" points="246.162,-144.834 250.5,-154.5 253.137,-144.239 246.162,-144.834"/>
</g>
<!-- Node0x4c28c68&#45;&gt;Node0x4c28b60 -->
<g id="edge3" class="edge"><title>Node0x4c28c68:s0&#45;&gt;Node0x4c28b60:d0</title>
<path fill="none" stroke="white" stroke-width="3" d="M198.5,-105C198.5,-127.315 224.347,-120.648 233.5,-141 233.963,-142.029 234.499,-143.146 235.024,-144.283"/>
<polygon fill="white" stroke="white" stroke-width="3" points="231.517,-144.334 234.5,-154.5 238.508,-144.693 231.517,-144.334"/>
</g>
</g>
</svg>
