<?xml version="1.0" encoding="UTF-8" standalone="no"?>
<!DOCTYPE svg PUBLIC "-//W3C//DTD SVG 1.1//EN"
 "http://www.w3.org/Graphics/SVG/1.1/DTD/svg11.dtd">
<!-- Generated by graphviz version 2.38.0 (20140413.2041)
 -->
<!-- Title: scheduler input for foo:entry Pages: 1 -->
<svg width="533pt" height="254pt"
 viewBox="0.00 0.00 533.00 254.00" xmlns="http://www.w3.org/2000/svg" xmlns:xlink="http://www.w3.org/1999/xlink">
<g id="graph0" class="graph" transform="scale(1 1) rotate(0) translate(4 250)">
<title>scheduler input for foo:entry</title>
<polygon fill="black" stroke="none" points="-4,4 -4,-250 529,-250 529,4 -4,4"/>
<!-- Node0x3055638 -->
<g id="node1" class="node"><title>Node0x3055638</title>
<path fill="none" stroke="white" stroke-width="3" d="M12,-141.5C12,-141.5 151,-141.5 151,-141.5 157,-141.5 163,-147.5 163,-153.5 163,-153.5 163,-233.5 163,-233.5 163,-239.5 157,-245.5 151,-245.5 151,-245.5 12,-245.5 12,-245.5 6,-245.5 0,-239.5 0,-233.5 0,-233.5 0,-153.5 0,-153.5 0,-147.5 6,-141.5 12,-141.5"/>
<text text-anchor="middle" x="40.5" y="-228.7" font-family="Calibri" font-size="16.00" fill="white">0</text>
<polyline fill="none" stroke="white" stroke-width="3" points="81,-219.5 81,-245.5 "/>
<text text-anchor="middle" x="122" y="-228.7" font-family="Calibri" font-size="16.00" fill="white">1</text>
<polyline fill="none" stroke="white" stroke-width="3" points="0,-219.5 163,-219.5 "/>
<text text-anchor="middle" x="81.5" y="-202.7" font-family="Calibri" font-size="16.00" fill="white">CopyFromReg [ORD=1]</text>
<polyline fill="none" stroke="white" stroke-width="3" points="0,-193.5 163,-193.5 "/>
<text text-anchor="middle" x="81.5" y="-176.7" font-family="Calibri" font-size="16.00" fill="white">0x3055638</text>
<polyline fill="none" stroke="white" stroke-width="3" points="0,-167.5 163,-167.5 "/>
<text text-anchor="middle" x="42" y="-150.7" font-family="Calibri" font-size="16.00" fill="white">i32</text>
<polyline fill="none" stroke="white" stroke-width="3" points="84,-141.5 84,-167.5 "/>
<text text-anchor="middle" x="123.5" y="-150.7" font-family="Calibri" font-size="16.00" fill="white">ch</text>
</g>
<!-- Node0x3055848 -->
<g id="node2" class="node"><title>Node0x3055848</title>
<path fill="none" stroke="white" stroke-width="3" d="M193,-141.5C193,-141.5 332,-141.5 332,-141.5 338,-141.5 344,-147.5 344,-153.5 344,-153.5 344,-233.5 344,-233.5 344,-239.5 338,-245.5 332,-245.5 332,-245.5 193,-245.5 193,-245.5 187,-245.5 181,-239.5 181,-233.5 181,-233.5 181,-153.5 181,-153.5 181,-147.5 187,-141.5 193,-141.5"/>
<text text-anchor="middle" x="221.5" y="-228.7" font-family="Calibri" font-size="16.00" fill="white">0</text>
<polyline fill="none" stroke="white" stroke-width="3" points="262,-219.5 262,-245.5 "/>
<text text-anchor="middle" x="303" y="-228.7" font-family="Calibri" font-size="16.00" fill="white">1</text>
<polyline fill="none" stroke="white" stroke-width="3" points="181,-219.5 344,-219.5 "/>
<text text-anchor="middle" x="262.5" y="-202.7" font-family="Calibri" font-size="16.00" fill="white">CopyFromReg [ORD=1]</text>
<polyline fill="none" stroke="white" stroke-width="3" points="181,-193.5 344,-193.5 "/>
<text text-anchor="middle" x="262.5" y="-176.7" font-family="Calibri" font-size="16.00" fill="white">0x3055848</text>
<polyline fill="none" stroke="white" stroke-width="3" points="181,-167.5 344,-167.5 "/>
<text text-anchor="middle" x="223" y="-150.7" font-family="Calibri" font-size="16.00" fill="white">i32</text>
<polyline fill="none" stroke="white" stroke-width="3" points="265,-141.5 265,-167.5 "/>
<text text-anchor="middle" x="304.5" y="-150.7" font-family="Calibri" font-size="16.00" fill="white">ch</text>
</g>
<!-- Node0x3055a58 -->
<g id="node3" class="node"><title>Node0x3055a58</title>
<path fill="none" stroke="white" stroke-width="3" d="M374,-141.5C374,-141.5 513,-141.5 513,-141.5 519,-141.5 525,-147.5 525,-153.5 525,-153.5 525,-233.5 525,-233.5 525,-239.5 519,-245.5 513,-245.5 513,-245.5 374,-245.5 374,-245.5 368,-245.5 362,-239.5 362,-233.5 362,-233.5 362,-153.5 362,-153.5 362,-147.5 368,-141.5 374,-141.5"/>
<text text-anchor="middle" x="402.5" y="-228.7" font-family="Calibri" font-size="16.00" fill="white">0</text>
<polyline fill="none" stroke="white" stroke-width="3" points="443,-219.5 443,-245.5 "/>
<text text-anchor="middle" x="484" y="-228.7" font-family="Calibri" font-size="16.00" fill="white">1</text>
<polyline fill="none" stroke="white" stroke-width="3" points="362,-219.5 525,-219.5 "/>
<text text-anchor="middle" x="443.5" y="-202.7" font-family="Calibri" font-size="16.00" fill="white">CopyFromReg [ORD=1]</text>
<polyline fill="none" stroke="white" stroke-width="3" points="362,-193.5 525,-193.5 "/>
<text text-anchor="middle" x="443.5" y="-176.7" font-family="Calibri" font-size="16.00" fill="white">0x3055a58</text>
<polyline fill="none" stroke="white" stroke-width="3" points="362,-167.5 525,-167.5 "/>
<text text-anchor="middle" x="404" y="-150.7" font-family="Calibri" font-size="16.00" fill="white">i32</text>
<polyline fill="none" stroke="white" stroke-width="3" points="446,-141.5 446,-167.5 "/>
<text text-anchor="middle" x="485.5" y="-150.7" font-family="Calibri" font-size="16.00" fill="white">ch</text>
</g>
<!-- Node0x3055c68 -->
<g id="node4" class="node"><title>Node0x3055c68</title>
<path fill="none" stroke="white" stroke-width="3" d="M184,-0.5C184,-0.5 263,-0.5 263,-0.5 269,-0.5 275,-6.5 275,-12.5 275,-12.5 275,-92.5 275,-92.5 275,-98.5 269,-104.5 263,-104.5 263,-104.5 184,-104.5 184,-104.5 178,-104.5 172,-98.5 172,-92.5 172,-92.5 172,-12.5 172,-12.5 172,-6.5 178,-0.5 184,-0.5"/>
<text text-anchor="middle" x="189" y="-87.7" font-family="Calibri" font-size="16.00" fill="white">0</text>
<polyline fill="none" stroke="white" stroke-width="3" points="206,-78.5 206,-104.5 "/>
<text text-anchor="middle" x="223" y="-87.7" font-family="Calibri" font-size="16.00" fill="white">1</text>
<polyline fill="none" stroke="white" stroke-width="3" points="240,-78.5 240,-104.5 "/>
<text text-anchor="middle" x="257.5" y="-87.7" font-family="Calibri" font-size="16.00" fill="white">2</text>
<polyline fill="none" stroke="white" stroke-width="3" points="172,-78.5 275,-78.5 "/>
<text text-anchor="middle" x="223.5" y="-61.7" font-family="Calibri" font-size="16.00" fill="white">MLA [ORD=3]</text>
<polyline fill="none" stroke="white" stroke-width="3" points="172,-52.5 275,-52.5 "/>
<text text-anchor="middle" x="223.5" y="-35.7" font-family="Calibri" font-size="16.00" fill="white">0x3055c68</text>
<polyline fill="none" stroke="white" stroke-width="3" points="172,-26.5 275,-26.5 "/>
<text text-anchor="middle" x="223.5" y="-9.7" font-family="Calibri" font-size="16.00" fill="white">i32</text>
</g>
<!-- Node0x3055c68&#45;&gt;Node0x3055638 -->
<g id="edge1" class="edge"><title>Node0x3055c68:s0&#45;&gt;Node0x3055638:d0</title>
<path fill="none" stroke="white" stroke-width="3" d="M170.5,-91.5C143.154,-91.5 62.1935,-106.409 44.8106,-131.361"/>
<polygon fill="white" stroke="white" stroke-width="3" points="41.4384,-130.405 41.5,-141 48.0587,-132.679 41.4384,-130.405"/>
</g>
<!-- Node0x3055c68&#45;&gt;Node0x3055848 -->
<g id="edge2" class="edge"><title>Node0x3055c68:s1&#45;&gt;Node0x3055848:d0</title>
<path fill="none" stroke="white" stroke-width="3" d="M222.5,-105C222.5,-117 222.5,-122.25 222.5,-130.875"/>
<polygon fill="white" stroke="white" stroke-width="3" points="219,-131 222.5,-141 226,-131 219,-131"/>
</g>
<!-- Node0x3055c68&#45;&gt;Node0x3055a58 -->
<g id="edge3" class="edge"><title>Node0x3055c68:s2&#45;&gt;Node0x3055a58:d0</title>
<path fill="none" stroke="white" stroke-width="3" d="M276.5,-91.5C317.184,-91.5 326.1,-110.926 353.5,-141 354.709,-142.327 355.293,-143.902 355.625,-145.499"/>
<polygon fill="white" stroke="white" stroke-width="3" points="352.66,-147.374 360.5,-154.5 358.815,-144.04 352.66,-147.374"/>
</g>
</g>
</svg>
