<?xml version="1.0" encoding="UTF-8" standalone="no"?>
<!DOCTYPE svg PUBLIC "-//W3C//DTD SVG 1.1//EN"
 "http://www.w3.org/Graphics/SVG/1.1/DTD/svg11.dtd">
<!-- Generated by graphviz version 2.38.0 (20140413.2041)
 -->
<!-- Title: scheduler input for foo:entry Pages: 1 -->
<svg width="533pt" height="202pt"
 viewBox="0.00 0.00 533.00 202.00" xmlns="http://www.w3.org/2000/svg" xmlns:xlink="http://www.w3.org/1999/xlink">
<g id="graph0" class="graph" transform="scale(1 1) rotate(0) translate(4 198)">
<title>scheduler input for foo:entry</title>
<polygon fill="black" stroke="none" points="-4,4 -4,-198 529,-198 529,4 -4,4"/>
<!-- Node0x3055638 -->
<g id="node1" class="node"><title>Node0x3055638</title>
<path fill="none" stroke="white" stroke-width="3" d="M12,-115.5C12,-115.5 151,-115.5 151,-115.5 157,-115.5 163,-121.5 163,-127.5 163,-127.5 163,-181.5 163,-181.5 163,-187.5 157,-193.5 151,-193.5 151,-193.5 12,-193.5 12,-193.5 6,-193.5 0,-187.5 0,-181.5 0,-181.5 0,-127.5 0,-127.5 0,-121.5 6,-115.5 12,-115.5"/>
<text text-anchor="middle" x="40.5" y="-176.7" font-family="Calibri" font-size="16.00" fill="white">0</text>
<polyline fill="none" stroke="white" stroke-width="3" points="81,-167.5 81,-193.5 "/>
<text text-anchor="middle" x="122" y="-176.7" font-family="Calibri" font-size="16.00" fill="white">1</text>
<polyline fill="none" stroke="white" stroke-width="3" points="0,-167.5 163,-167.5 "/>
<text text-anchor="middle" x="81.5" y="-150.7" font-family="Calibri" font-size="16.00" fill="white">CopyFromReg [ORD=1]</text>
<polyline fill="none" stroke="white" stroke-width="3" points="0,-141.5 163,-141.5 "/>
<text text-anchor="middle" x="42" y="-124.7" font-family="Calibri" font-size="16.00" fill="white">i32</text>
<polyline fill="none" stroke="white" stroke-width="3" points="84,-115.5 84,-141.5 "/>
<text text-anchor="middle" x="123.5" y="-124.7" font-family="Calibri" font-size="16.00" fill="white">ch</text>
</g>
<!-- Node0x3055848 -->
<g id="node2" class="node"><title>Node0x3055848</title>
<path fill="none" stroke="white" stroke-width="3" d="M193,-115.5C193,-115.5 332,-115.5 332,-115.5 338,-115.5 344,-121.5 344,-127.5 344,-127.5 344,-181.5 344,-181.5 344,-187.5 338,-193.5 332,-193.5 332,-193.5 193,-193.5 193,-193.5 187,-193.5 181,-187.5 181,-181.5 181,-181.5 181,-127.5 181,-127.5 181,-121.5 187,-115.5 193,-115.5"/>
<text text-anchor="middle" x="221.5" y="-176.7" font-family="Calibri" font-size="16.00" fill="white">0</text>
<polyline fill="none" stroke="white" stroke-width="3" points="262,-167.5 262,-193.5 "/>
<text text-anchor="middle" x="303" y="-176.7" font-family="Calibri" font-size="16.00" fill="white">1</text>
<polyline fill="none" stroke="white" stroke-width="3" points="181,-167.5 344,-167.5 "/>
<text text-anchor="middle" x="262.5" y="-150.7" font-family="Calibri" font-size="16.00" fill="white">CopyFromReg [ORD=1]</text>
<polyline fill="none" stroke="white" stroke-width="3" points="181,-141.5 344,-141.5 "/>
<text text-anchor="middle" x="223" y="-124.7" font-family="Calibri" font-size="16.00" fill="white">i32</text>
<polyline fill="none" stroke="white" stroke-width="3" points="265,-115.5 265,-141.5 "/>
<text text-anchor="middle" x="304.5" y="-124.7" font-family="Calibri" font-size="16.00" fill="white">ch</text>
</g>
<!-- Node0x3055a58 -->
<g id="node3" class="node"><title>Node0x3055a58</title>
<path fill="none" stroke="white" stroke-width="3" d="M374,-115.5C374,-115.5 513,-115.5 513,-115.5 519,-115.5 525,-121.5 525,-127.5 525,-127.5 525,-181.5 525,-181.5 525,-187.5 519,-193.5 513,-193.5 513,-193.5 374,-193.5 374,-193.5 368,-193.5 362,-187.5 362,-181.5 362,-181.5 362,-127.5 362,-127.5 362,-121.5 368,-115.5 374,-115.5"/>
<text text-anchor="middle" x="402.5" y="-176.7" font-family="Calibri" font-size="16.00" fill="white">0</text>
<polyline fill="none" stroke="white" stroke-width="3" points="443,-167.5 443,-193.5 "/>
<text text-anchor="middle" x="484" y="-176.7" font-family="Calibri" font-size="16.00" fill="white">1</text>
<polyline fill="none" stroke="white" stroke-width="3" points="362,-167.5 525,-167.5 "/>
<text text-anchor="middle" x="443.5" y="-150.7" font-family="Calibri" font-size="16.00" fill="white">CopyFromReg [ORD=1]</text>
<polyline fill="none" stroke="white" stroke-width="3" points="362,-141.5 525,-141.5 "/>
<text text-anchor="middle" x="404" y="-124.7" font-family="Calibri" font-size="16.00" fill="white">i32</text>
<polyline fill="none" stroke="white" stroke-width="3" points="446,-115.5 446,-141.5 "/>
<text text-anchor="middle" x="485.5" y="-124.7" font-family="Calibri" font-size="16.00" fill="white">ch</text>
</g>
<!-- Node0x3055c68 -->
<g id="node4" class="node"><title>Node0x3055c68</title>
<path fill="none" stroke="white" stroke-width="3" d="M184,-0.5C184,-0.5 263,-0.5 263,-0.5 269,-0.5 275,-6.5 275,-12.5 275,-12.5 275,-66.5 275,-66.5 275,-72.5 269,-78.5 263,-78.5 263,-78.5 184,-78.5 184,-78.5 178,-78.5 172,-72.5 172,-66.5 172,-66.5 172,-12.5 172,-12.5 172,-6.5 178,-0.5 184,-0.5"/>
<text text-anchor="middle" x="189" y="-61.7" font-family="Calibri" font-size="16.00" fill="white">0</text>
<polyline fill="none" stroke="white" stroke-width="3" points="206,-52.5 206,-78.5 "/>
<text text-anchor="middle" x="223" y="-61.7" font-family="Calibri" font-size="16.00" fill="white">1</text>
<polyline fill="none" stroke="white" stroke-width="3" points="240,-52.5 240,-78.5 "/>
<text text-anchor="middle" x="257.5" y="-61.7" font-family="Calibri" font-size="16.00" fill="white">2</text>
<polyline fill="none" stroke="white" stroke-width="3" points="172,-52.5 275,-52.5 "/>
<text text-anchor="middle" x="223.5" y="-35.7" font-family="Calibri" font-size="16.00" fill="white">MLA [ORD=3]</text>
<polyline fill="none" stroke="white" stroke-width="3" points="172,-26.5 275,-26.5 "/>
<text text-anchor="middle" x="223.5" y="-9.7" font-family="Calibri" font-size="16.00" fill="white">i32</text>
</g>
<!-- Node0x3055c68&#45;&gt;Node0x3055638 -->
<g id="edge1" class="edge"><title>Node0x3055c68:s0&#45;&gt;Node0x3055638:d0</title>
<path fill="none" stroke="white" stroke-width="3" d="M170.5,-65.5C143.154,-65.5 62.1935,-80.4087 44.8106,-105.361"/>
<polygon fill="white" stroke="white" stroke-width="3" points="41.4384,-104.405 41.5,-115 48.0587,-106.679 41.4384,-104.405"/>
</g>
<!-- Node0x3055c68&#45;&gt;Node0x3055848 -->
<g id="edge2" class="edge"><title>Node0x3055c68:s1&#45;&gt;Node0x3055848:d0</title>
<path fill="none" stroke="white" stroke-width="3" d="M222.5,-79C222.5,-91 222.5,-96.25 222.5,-104.875"/>
<polygon fill="white" stroke="white" stroke-width="3" points="219,-105 222.5,-115 226,-105 219,-105"/>
</g>
<!-- Node0x3055c68&#45;&gt;Node0x3055a58 -->
<g id="edge3" class="edge"><title>Node0x3055c68:s2&#45;&gt;Node0x3055a58:d0</title>
<path fill="none" stroke="white" stroke-width="3" d="M276.5,-65.5C317.184,-65.5 326.1,-84.9264 353.5,-115 354.709,-116.327 355.293,-117.902 355.625,-119.499"/>
<polygon fill="white" stroke="white" stroke-width="3" points="352.66,-121.374 360.5,-128.5 358.815,-118.04 352.66,-121.374"/>
</g>
</g>
</svg>
