<?xml version="1.0" encoding="UTF-8" standalone="no"?>
<!DOCTYPE svg PUBLIC "-//W3C//DTD SVG 1.1//EN"
 "http://www.w3.org/Graphics/SVG/1.1/DTD/svg11.dtd">
<!-- Generated by graphviz version 2.38.0 (20140413.2041)
 -->
<!-- Title: isel input for foo:entry Pages: 1 -->
<svg width="465pt" height="317pt"
 viewBox="0.00 0.00 465.00 317.00" xmlns="http://www.w3.org/2000/svg" xmlns:xlink="http://www.w3.org/1999/xlink">
<g id="graph0" class="graph" transform="scale(1 1) rotate(0) translate(4 313)">
<title>isel input for foo:entry</title>
<polygon fill="black" stroke="none" points="-4,4 -4,-313 461,-313 461,4 -4,4"/>
<!-- Node0x4c28638 -->
<g id="node1" class="node"><title>Node0x4c28638</title>
<path fill="none" stroke="white" stroke-width="3" d="M12,-230.5C12,-230.5 193,-230.5 193,-230.5 199,-230.5 205,-236.5 205,-242.5 205,-242.5 205,-296.5 205,-296.5 205,-302.5 199,-308.5 193,-308.5 193,-308.5 12,-308.5 12,-308.5 6,-308.5 0,-302.5 0,-296.5 0,-296.5 0,-242.5 0,-242.5 0,-236.5 6,-230.5 12,-230.5"/>
<text text-anchor="middle" x="51" y="-291.7" font-family="Calibri" font-size="16.00" fill="white">0</text>
<polyline fill="none" stroke="white" stroke-width="3" points="102,-282.5 102,-308.5 "/>
<text text-anchor="middle" x="153.5" y="-291.7" font-family="Calibri" font-size="16.00" fill="white">1</text>
<polyline fill="none" stroke="white" stroke-width="3" points="0,-282.5 205,-282.5 "/>
<text text-anchor="middle" x="102.5" y="-265.7" font-family="Calibri" font-size="16.00" fill="white">CopyFromReg [ORD=1] [ID=5]</text>
<polyline fill="none" stroke="white" stroke-width="3" points="0,-256.5 205,-256.5 "/>
<text text-anchor="middle" x="52.5" y="-239.7" font-family="Calibri" font-size="16.00" fill="white">i32</text>
<polyline fill="none" stroke="white" stroke-width="3" points="105,-230.5 105,-256.5 "/>
<text text-anchor="middle" x="155" y="-239.7" font-family="Calibri" font-size="16.00" fill="white">ch</text>
</g>
<!-- Node0x4c28848 -->
<g id="node2" class="node"><title>Node0x4c28848</title>
<path fill="none" stroke="white" stroke-width="3" d="M235,-230.5C235,-230.5 416,-230.5 416,-230.5 422,-230.5 428,-236.5 428,-242.5 428,-242.5 428,-296.5 428,-296.5 428,-302.5 422,-308.5 416,-308.5 416,-308.5 235,-308.5 235,-308.5 229,-308.5 223,-302.5 223,-296.5 223,-296.5 223,-242.5 223,-242.5 223,-236.5 229,-230.5 235,-230.5"/>
<text text-anchor="middle" x="274" y="-291.7" font-family="Calibri" font-size="16.00" fill="white">0</text>
<polyline fill="none" stroke="white" stroke-width="3" points="325,-282.5 325,-308.5 "/>
<text text-anchor="middle" x="376.5" y="-291.7" font-family="Calibri" font-size="16.00" fill="white">1</text>
<polyline fill="none" stroke="white" stroke-width="3" points="223,-282.5 428,-282.5 "/>
<text text-anchor="middle" x="325.5" y="-265.7" font-family="Calibri" font-size="16.00" fill="white">CopyFromReg [ORD=1] [ID=6]</text>
<polyline fill="none" stroke="white" stroke-width="3" points="223,-256.5 428,-256.5 "/>
<text text-anchor="middle" x="275.5" y="-239.7" font-family="Calibri" font-size="16.00" fill="white">i32</text>
<polyline fill="none" stroke="white" stroke-width="3" points="328,-230.5 328,-256.5 "/>
<text text-anchor="middle" x="378" y="-239.7" font-family="Calibri" font-size="16.00" fill="white">ch</text>
</g>
<!-- Node0x4c28a58 -->
<g id="node3" class="node"><title>Node0x4c28a58</title>
<path fill="none" stroke="white" stroke-width="3" d="M264,-115.5C264,-115.5 445,-115.5 445,-115.5 451,-115.5 457,-121.5 457,-127.5 457,-127.5 457,-181.5 457,-181.5 457,-187.5 451,-193.5 445,-193.5 445,-193.5 264,-193.5 264,-193.5 258,-193.5 252,-187.5 252,-181.5 252,-181.5 252,-127.5 252,-127.5 252,-121.5 258,-115.5 264,-115.5"/>
<text text-anchor="middle" x="303" y="-176.7" font-family="Calibri" font-size="16.00" fill="white">0</text>
<polyline fill="none" stroke="white" stroke-width="3" points="354,-167.5 354,-193.5 "/>
<text text-anchor="middle" x="405.5" y="-176.7" font-family="Calibri" font-size="16.00" fill="white">1</text>
<polyline fill="none" stroke="white" stroke-width="3" points="252,-167.5 457,-167.5 "/>
<text text-anchor="middle" x="354.5" y="-150.7" font-family="Calibri" font-size="16.00" fill="white">CopyFromReg [ORD=1] [ID=7]</text>
<polyline fill="none" stroke="white" stroke-width="3" points="252,-141.5 457,-141.5 "/>
<text text-anchor="middle" x="304.5" y="-124.7" font-family="Calibri" font-size="16.00" fill="white">i32</text>
<polyline fill="none" stroke="white" stroke-width="3" points="357,-115.5 357,-141.5 "/>
<text text-anchor="middle" x="407" y="-124.7" font-family="Calibri" font-size="16.00" fill="white">ch</text>
</g>
<!-- Node0x4c28b60 -->
<g id="node4" class="node"><title>Node0x4c28b60</title>
<path fill="none" stroke="white" stroke-width="3" d="M105.5,-115.5C105.5,-115.5 221.5,-115.5 221.5,-115.5 227.5,-115.5 233.5,-121.5 233.5,-127.5 233.5,-127.5 233.5,-181.5 233.5,-181.5 233.5,-187.5 227.5,-193.5 221.5,-193.5 221.5,-193.5 105.5,-193.5 105.5,-193.5 99.5,-193.5 93.5,-187.5 93.5,-181.5 93.5,-181.5 93.5,-127.5 93.5,-127.5 93.5,-121.5 99.5,-115.5 105.5,-115.5"/>
<text text-anchor="middle" x="128.5" y="-176.7" font-family="Calibri" font-size="16.00" fill="white">0</text>
<polyline fill="none" stroke="white" stroke-width="3" points="163.5,-167.5 163.5,-193.5 "/>
<text text-anchor="middle" x="198.5" y="-176.7" font-family="Calibri" font-size="16.00" fill="white">1</text>
<polyline fill="none" stroke="white" stroke-width="3" points="93.5,-167.5 233.5,-167.5 "/>
<text text-anchor="middle" x="163.5" y="-150.7" font-family="Calibri" font-size="16.00" fill="white">mul [ORD=2] [ID=8]</text>
<polyline fill="none" stroke="white" stroke-width="3" points="93.5,-141.5 233.5,-141.5 "/>
<text text-anchor="middle" x="163.5" y="-124.7" font-family="Calibri" font-size="16.00" fill="white">i32</text>
</g>
<!-- Node0x4c28b60&#45;&gt;Node0x4c28638 -->
<g id="edge1" class="edge"><title>Node0x4c28b60:s0&#45;&gt;Node0x4c28638:d0</title>
<path fill="none" stroke="white" stroke-width="3" d="M128.5,-194C128.5,-227.288 68.2158,-200.191 55.0287,-220.269"/>
<polygon fill="white" stroke="white" stroke-width="3" points="51.6276,-219.441 52.5,-230 58.4026,-221.202 51.6276,-219.441"/>
</g>
<!-- Node0x4c28b60&#45;&gt;Node0x4c28848 -->
<g id="edge2" class="edge"><title>Node0x4c28b60:s1&#45;&gt;Node0x4c28848:d0</title>
<path fill="none" stroke="white" stroke-width="3" d="M234.5,-180.5C256.836,-180.5 218.887,-218.952 214.849,-235.775"/>
<polygon fill="white" stroke="white" stroke-width="3" points="212.323,-238.205 221.5,-243.5 217.628,-233.638 212.323,-238.205"/>
</g>
<!-- Node0x4c28c68 -->
<g id="node5" class="node"><title>Node0x4c28c68</title>
<path fill="none" stroke="white" stroke-width="3" d="M175.5,-0.5C175.5,-0.5 291.5,-0.5 291.5,-0.5 297.5,-0.5 303.5,-6.5 303.5,-12.5 303.5,-12.5 303.5,-66.5 303.5,-66.5 303.5,-72.5 297.5,-78.5 291.5,-78.5 291.5,-78.5 175.5,-78.5 175.5,-78.5 169.5,-78.5 163.5,-72.5 163.5,-66.5 163.5,-66.5 163.5,-12.5 163.5,-12.5 163.5,-6.5 169.5,-0.5 175.5,-0.5"/>
<text text-anchor="middle" x="198.5" y="-61.7" font-family="Calibri" font-size="16.00" fill="white">0</text>
<polyline fill="none" stroke="white" stroke-width="3" points="233.5,-52.5 233.5,-78.5 "/>
<text text-anchor="middle" x="268.5" y="-61.7" font-family="Calibri" font-size="16.00" fill="white">1</text>
<polyline fill="none" stroke="white" stroke-width="3" points="163.5,-52.5 303.5,-52.5 "/>
<text text-anchor="middle" x="233.5" y="-35.7" font-family="Calibri" font-size="16.00" fill="white">add [ORD=3] [ID=9]</text>
<polyline fill="none" stroke="white" stroke-width="3" points="163.5,-26.5 303.5,-26.5 "/>
<text text-anchor="middle" x="233.5" y="-9.7" font-family="Calibri" font-size="16.00" fill="white">i32</text>
</g>
<!-- Node0x4c28c68&#45;&gt;Node0x4c28a58 -->
<g id="edge4" class="edge"><title>Node0x4c28c68:s1&#45;&gt;Node0x4c28a58:d0</title>
<path fill="none" stroke="white" stroke-width="3" d="M304.5,-65.5C310.516,-65.5 306.487,-73.7776 303.5,-79 289.543,-103.399 265.457,-90.6007 251.5,-115 250.893,-116.061 250.243,-117.248 249.644,-118.466"/>
<polygon fill="white" stroke="white" stroke-width="3" points="246.162,-118.834 250.5,-128.5 253.137,-118.239 246.162,-118.834"/>
</g>
<!-- Node0x4c28c68&#45;&gt;Node0x4c28b60 -->
<g id="edge3" class="edge"><title>Node0x4c28c68:s0&#45;&gt;Node0x4c28b60:d0</title>
<path fill="none" stroke="white" stroke-width="3" d="M198.5,-79C198.5,-101.315 224.347,-94.6481 233.5,-115 233.963,-116.029 234.499,-117.146 235.024,-118.283"/>
<polygon fill="white" stroke="white" stroke-width="3" points="231.517,-118.334 234.5,-128.5 238.508,-118.693 231.517,-118.334"/>
</g>
</g>
</svg>
