<?xml version="1.0" encoding="UTF-8" standalone="no"?>
<!DOCTYPE svg PUBLIC "-//W3C//DTD SVG 1.1//EN"
 "http://www.w3.org/Graphics/SVG/1.1/DTD/svg11.dtd">
<!-- Generated by graphviz version 2.38.0 (20140413.2041)
 -->
<!-- Title: scheduler input for foo:entry Pages: 1 -->
<svg width="373pt" height="395pt"
 viewBox="0.00 0.00 373.00 395.00" xmlns="http://www.w3.org/2000/svg" xmlns:xlink="http://www.w3.org/1999/xlink">
<g id="graph0" class="graph" transform="scale(1 1) rotate(0) translate(4 391)">
<title>scheduler input for foo:entry</title>
<polygon fill="black" stroke="none" points="-4,4 -4,-391 369,-391 369,4 -4,4"/>
<!-- Node0x4839638 -->
<g id="node1" class="node"><title>Node0x4839638</title>
<path fill="none" stroke="white" stroke-width="3" d="M12,-282.5C12,-282.5 151,-282.5 151,-282.5 157,-282.5 163,-288.5 163,-294.5 163,-294.5 163,-374.5 163,-374.5 163,-380.5 157,-386.5 151,-386.5 151,-386.5 12,-386.5 12,-386.5 6,-386.5 0,-380.5 0,-374.5 0,-374.5 0,-294.5 0,-294.5 0,-288.5 6,-282.5 12,-282.5"/>
<text text-anchor="middle" x="40.5" y="-369.7" font-family="Calibri" font-size="16.00" fill="white">0</text>
<polyline fill="none" stroke="white" stroke-width="3" points="81,-360.5 81,-386.5 "/>
<text text-anchor="middle" x="122" y="-369.7" font-family="Calibri" font-size="16.00" fill="white">1</text>
<polyline fill="none" stroke="white" stroke-width="3" points="0,-360.5 163,-360.5 "/>
<text text-anchor="middle" x="81.5" y="-343.7" font-family="Calibri" font-size="16.00" fill="white">CopyFromReg [ORD=1]</text>
<polyline fill="none" stroke="white" stroke-width="3" points="0,-334.5 163,-334.5 "/>
<text text-anchor="middle" x="81.5" y="-317.7" font-family="Calibri" font-size="16.00" fill="white">0x4839638</text>
<polyline fill="none" stroke="white" stroke-width="3" points="0,-308.5 163,-308.5 "/>
<text text-anchor="middle" x="42" y="-291.7" font-family="Calibri" font-size="16.00" fill="white">i32</text>
<polyline fill="none" stroke="white" stroke-width="3" points="84,-282.5 84,-308.5 "/>
<text text-anchor="middle" x="123.5" y="-291.7" font-family="Calibri" font-size="16.00" fill="white">ch</text>
</g>
<!-- Node0x4839848 -->
<g id="node2" class="node"><title>Node0x4839848</title>
<path fill="none" stroke="white" stroke-width="3" d="M193,-282.5C193,-282.5 332,-282.5 332,-282.5 338,-282.5 344,-288.5 344,-294.5 344,-294.5 344,-374.5 344,-374.5 344,-380.5 338,-386.5 332,-386.5 332,-386.5 193,-386.5 193,-386.5 187,-386.5 181,-380.5 181,-374.5 181,-374.5 181,-294.5 181,-294.5 181,-288.5 187,-282.5 193,-282.5"/>
<text text-anchor="middle" x="221.5" y="-369.7" font-family="Calibri" font-size="16.00" fill="white">0</text>
<polyline fill="none" stroke="white" stroke-width="3" points="262,-360.5 262,-386.5 "/>
<text text-anchor="middle" x="303" y="-369.7" font-family="Calibri" font-size="16.00" fill="white">1</text>
<polyline fill="none" stroke="white" stroke-width="3" points="181,-360.5 344,-360.5 "/>
<text text-anchor="middle" x="262.5" y="-343.7" font-family="Calibri" font-size="16.00" fill="white">CopyFromReg [ORD=1]</text>
<polyline fill="none" stroke="white" stroke-width="3" points="181,-334.5 344,-334.5 "/>
<text text-anchor="middle" x="262.5" y="-317.7" font-family="Calibri" font-size="16.00" fill="white">0x4839848</text>
<polyline fill="none" stroke="white" stroke-width="3" points="181,-308.5 344,-308.5 "/>
<text text-anchor="middle" x="223" y="-291.7" font-family="Calibri" font-size="16.00" fill="white">i32</text>
<polyline fill="none" stroke="white" stroke-width="3" points="265,-282.5 265,-308.5 "/>
<text text-anchor="middle" x="304.5" y="-291.7" font-family="Calibri" font-size="16.00" fill="white">ch</text>
</g>
<!-- Node0x4839a58 -->
<g id="node3" class="node"><title>Node0x4839a58</title>
<path fill="none" stroke="white" stroke-width="3" d="M214,-141.5C214,-141.5 353,-141.5 353,-141.5 359,-141.5 365,-147.5 365,-153.5 365,-153.5 365,-233.5 365,-233.5 365,-239.5 359,-245.5 353,-245.5 353,-245.5 214,-245.5 214,-245.5 208,-245.5 202,-239.5 202,-233.5 202,-233.5 202,-153.5 202,-153.5 202,-147.5 208,-141.5 214,-141.5"/>
<text text-anchor="middle" x="242.5" y="-228.7" font-family="Calibri" font-size="16.00" fill="white">0</text>
<polyline fill="none" stroke="white" stroke-width="3" points="283,-219.5 283,-245.5 "/>
<text text-anchor="middle" x="324" y="-228.7" font-family="Calibri" font-size="16.00" fill="white">1</text>
<polyline fill="none" stroke="white" stroke-width="3" points="202,-219.5 365,-219.5 "/>
<text text-anchor="middle" x="283.5" y="-202.7" font-family="Calibri" font-size="16.00" fill="white">CopyFromReg [ORD=1]</text>
<polyline fill="none" stroke="white" stroke-width="3" points="202,-193.5 365,-193.5 "/>
<text text-anchor="middle" x="283.5" y="-176.7" font-family="Calibri" font-size="16.00" fill="white">0x4839a58</text>
<polyline fill="none" stroke="white" stroke-width="3" points="202,-167.5 365,-167.5 "/>
<text text-anchor="middle" x="244" y="-150.7" font-family="Calibri" font-size="16.00" fill="white">i32</text>
<polyline fill="none" stroke="white" stroke-width="3" points="286,-141.5 286,-167.5 "/>
<text text-anchor="middle" x="325.5" y="-150.7" font-family="Calibri" font-size="16.00" fill="white">ch</text>
</g>
<!-- Node0x4839b60 -->
<g id="node4" class="node"><title>Node0x4839b60</title>
<path fill="none" stroke="white" stroke-width="3" d="M91.5,-141.5C91.5,-141.5 171.5,-141.5 171.5,-141.5 177.5,-141.5 183.5,-147.5 183.5,-153.5 183.5,-153.5 183.5,-233.5 183.5,-233.5 183.5,-239.5 177.5,-245.5 171.5,-245.5 171.5,-245.5 91.5,-245.5 91.5,-245.5 85.5,-245.5 79.5,-239.5 79.5,-233.5 79.5,-233.5 79.5,-153.5 79.5,-153.5 79.5,-147.5 85.5,-141.5 91.5,-141.5"/>
<text text-anchor="middle" x="105.5" y="-228.7" font-family="Calibri" font-size="16.00" fill="white">0</text>
<polyline fill="none" stroke="white" stroke-width="3" points="131.5,-219.5 131.5,-245.5 "/>
<text text-anchor="middle" x="157.5" y="-228.7" font-family="Calibri" font-size="16.00" fill="white">1</text>
<polyline fill="none" stroke="white" stroke-width="3" points="79.5,-219.5 183.5,-219.5 "/>
<text text-anchor="middle" x="131.5" y="-202.7" font-family="Calibri" font-size="16.00" fill="white">MUL [ORD=2]</text>
<polyline fill="none" stroke="white" stroke-width="3" points="79.5,-193.5 183.5,-193.5 "/>
<text text-anchor="middle" x="131.5" y="-176.7" font-family="Calibri" font-size="16.00" fill="white">0x4839b60</text>
<polyline fill="none" stroke="white" stroke-width="3" points="79.5,-167.5 183.5,-167.5 "/>
<text text-anchor="middle" x="131.5" y="-150.7" font-family="Calibri" font-size="16.00" fill="white">i32</text>
</g>
<!-- Node0x4839b60&#45;&gt;Node0x4839638 -->
<g id="edge1" class="edge"><title>Node0x4839b60:s0&#45;&gt;Node0x4839638:d0</title>
<path fill="none" stroke="white" stroke-width="3" d="M105.5,-246C105.5,-274.301 57.3711,-256.048 44.5869,-271.983"/>
<polygon fill="white" stroke="white" stroke-width="3" points="41.1001,-271.413 41.5,-282 47.7897,-273.474 41.1001,-271.413"/>
</g>
<!-- Node0x4839b60&#45;&gt;Node0x4839848 -->
<g id="edge2" class="edge"><title>Node0x4839b60:s1&#45;&gt;Node0x4839848:d0</title>
<path fill="none" stroke="white" stroke-width="3" d="M184.5,-232.5C195.088,-232.5 178.887,-268.308 176.29,-285.932"/>
<polygon fill="white" stroke="white" stroke-width="3" points="173.001,-287.133 179.5,-295.5 179.637,-284.906 173.001,-287.133"/>
</g>
<!-- Node0x4839c68 -->
<g id="node5" class="node"><title>Node0x4839c68</title>
<path fill="none" stroke="white" stroke-width="3" d="M143,-0.5C143,-0.5 232,-0.5 232,-0.5 238,-0.5 244,-6.5 244,-12.5 244,-12.5 244,-92.5 244,-92.5 244,-98.5 238,-104.5 232,-104.5 232,-104.5 143,-104.5 143,-104.5 137,-104.5 131,-98.5 131,-92.5 131,-92.5 131,-12.5 131,-12.5 131,-6.5 137,-0.5 143,-0.5"/>
<text text-anchor="middle" x="159" y="-87.7" font-family="Calibri" font-size="16.00" fill="white">0</text>
<polyline fill="none" stroke="white" stroke-width="3" points="187,-78.5 187,-104.5 "/>
<text text-anchor="middle" x="215.5" y="-87.7" font-family="Calibri" font-size="16.00" fill="white">1</text>
<polyline fill="none" stroke="white" stroke-width="3" points="131,-78.5 244,-78.5 "/>
<text text-anchor="middle" x="187.5" y="-61.7" font-family="Calibri" font-size="16.00" fill="white">ADDrr [ORD=3]</text>
<polyline fill="none" stroke="white" stroke-width="3" points="131,-52.5 244,-52.5 "/>
<text text-anchor="middle" x="187.5" y="-35.7" font-family="Calibri" font-size="16.00" fill="white">0x4839c68</text>
<polyline fill="none" stroke="white" stroke-width="3" points="131,-26.5 244,-26.5 "/>
<text text-anchor="middle" x="187.5" y="-9.7" font-family="Calibri" font-size="16.00" fill="white">i32</text>
</g>
<!-- Node0x4839c68&#45;&gt;Node0x4839a58 -->
<g id="edge4" class="edge"><title>Node0x4839c68:s1&#45;&gt;Node0x4839a58:d0</title>
<path fill="none" stroke="white" stroke-width="3" d="M245.5,-91.5C271.307,-91.5 213.736,-126.938 197.854,-144.656"/>
<polygon fill="white" stroke="white" stroke-width="3" points="194.524,-145.752 200.5,-154.5 201.284,-143.934 194.524,-145.752"/>
</g>
<!-- Node0x4839c68&#45;&gt;Node0x4839b60 -->
<g id="edge3" class="edge"><title>Node0x4839c68:s0&#45;&gt;Node0x4839b60:d0</title>
<path fill="none" stroke="white" stroke-width="3" d="M158.5,-105C158.5,-124.48 176.995,-122.638 183.5,-141 183.877,-142.063 184.359,-143.203 184.854,-144.352"/>
<polygon fill="white" stroke="white" stroke-width="3" points="181.351,-144.384 184.5,-154.5 188.346,-144.628 181.351,-144.384"/>
</g>
</g>
</svg>
