<?xml version="1.0" encoding="UTF-8" standalone="no"?>
<!DOCTYPE svg PUBLIC "-//W3C//DTD SVG 1.1//EN"
 "http://www.w3.org/Graphics/SVG/1.1/DTD/svg11.dtd">
<!-- Generated by graphviz version 2.38.0 (20140413.2041)
 -->
<!-- Title: scheduler input for foo:entry Pages: 1 -->
<svg width="373pt" height="317pt"
 viewBox="0.00 0.00 373.00 317.00" xmlns="http://www.w3.org/2000/svg" xmlns:xlink="http://www.w3.org/1999/xlink">
<g id="graph0" class="graph" transform="scale(1 1) rotate(0) translate(4 313)">
<title>scheduler input for foo:entry</title>
<polygon fill="black" stroke="none" points="-4,4 -4,-313 369,-313 369,4 -4,4"/>
<!-- Node0x4839638 -->
<g id="node1" class="node"><title>Node0x4839638</title>
<path fill="none" stroke="white" stroke-width="3" d="M12,-230.5C12,-230.5 151,-230.5 151,-230.5 157,-230.5 163,-236.5 163,-242.5 163,-242.5 163,-296.5 163,-296.5 163,-302.5 157,-308.5 151,-308.5 151,-308.5 12,-308.5 12,-308.5 6,-308.5 0,-302.5 0,-296.5 0,-296.5 0,-242.5 0,-242.5 0,-236.5 6,-230.5 12,-230.5"/>
<text text-anchor="middle" x="40.5" y="-291.7" font-family="Calibri" font-size="16.00" fill="white">0</text>
<polyline fill="none" stroke="white" stroke-width="3" points="81,-282.5 81,-308.5 "/>
<text text-anchor="middle" x="122" y="-291.7" font-family="Calibri" font-size="16.00" fill="white">1</text>
<polyline fill="none" stroke="white" stroke-width="3" points="0,-282.5 163,-282.5 "/>
<text text-anchor="middle" x="81.5" y="-265.7" font-family="Calibri" font-size="16.00" fill="white">CopyFromReg [ORD=1]</text>
<polyline fill="none" stroke="white" stroke-width="3" points="0,-256.5 163,-256.5 "/>
<text text-anchor="middle" x="42" y="-239.7" font-family="Calibri" font-size="16.00" fill="white">i32</text>
<polyline fill="none" stroke="white" stroke-width="3" points="84,-230.5 84,-256.5 "/>
<text text-anchor="middle" x="123.5" y="-239.7" font-family="Calibri" font-size="16.00" fill="white">ch</text>
</g>
<!-- Node0x4839848 -->
<g id="node2" class="node"><title>Node0x4839848</title>
<path fill="none" stroke="white" stroke-width="3" d="M193,-230.5C193,-230.5 332,-230.5 332,-230.5 338,-230.5 344,-236.5 344,-242.5 344,-242.5 344,-296.5 344,-296.5 344,-302.5 338,-308.5 332,-308.5 332,-308.5 193,-308.5 193,-308.5 187,-308.5 181,-302.5 181,-296.5 181,-296.5 181,-242.5 181,-242.5 181,-236.5 187,-230.5 193,-230.5"/>
<text text-anchor="middle" x="221.5" y="-291.7" font-family="Calibri" font-size="16.00" fill="white">0</text>
<polyline fill="none" stroke="white" stroke-width="3" points="262,-282.5 262,-308.5 "/>
<text text-anchor="middle" x="303" y="-291.7" font-family="Calibri" font-size="16.00" fill="white">1</text>
<polyline fill="none" stroke="white" stroke-width="3" points="181,-282.5 344,-282.5 "/>
<text text-anchor="middle" x="262.5" y="-265.7" font-family="Calibri" font-size="16.00" fill="white">CopyFromReg [ORD=1]</text>
<polyline fill="none" stroke="white" stroke-width="3" points="181,-256.5 344,-256.5 "/>
<text text-anchor="middle" x="223" y="-239.7" font-family="Calibri" font-size="16.00" fill="white">i32</text>
<polyline fill="none" stroke="white" stroke-width="3" points="265,-230.5 265,-256.5 "/>
<text text-anchor="middle" x="304.5" y="-239.7" font-family="Calibri" font-size="16.00" fill="white">ch</text>
</g>
<!-- Node0x4839a58 -->
<g id="node3" class="node"><title>Node0x4839a58</title>
<path fill="none" stroke="white" stroke-width="3" d="M214,-115.5C214,-115.5 353,-115.5 353,-115.5 359,-115.5 365,-121.5 365,-127.5 365,-127.5 365,-181.5 365,-181.5 365,-187.5 359,-193.5 353,-193.5 353,-193.5 214,-193.5 214,-193.5 208,-193.5 202,-187.5 202,-181.5 202,-181.5 202,-127.5 202,-127.5 202,-121.5 208,-115.5 214,-115.5"/>
<text text-anchor="middle" x="242.5" y="-176.7" font-family="Calibri" font-size="16.00" fill="white">0</text>
<polyline fill="none" stroke="white" stroke-width="3" points="283,-167.5 283,-193.5 "/>
<text text-anchor="middle" x="324" y="-176.7" font-family="Calibri" font-size="16.00" fill="white">1</text>
<polyline fill="none" stroke="white" stroke-width="3" points="202,-167.5 365,-167.5 "/>
<text text-anchor="middle" x="283.5" y="-150.7" font-family="Calibri" font-size="16.00" fill="white">CopyFromReg [ORD=1]</text>
<polyline fill="none" stroke="white" stroke-width="3" points="202,-141.5 365,-141.5 "/>
<text text-anchor="middle" x="244" y="-124.7" font-family="Calibri" font-size="16.00" fill="white">i32</text>
<polyline fill="none" stroke="white" stroke-width="3" points="286,-115.5 286,-141.5 "/>
<text text-anchor="middle" x="325.5" y="-124.7" font-family="Calibri" font-size="16.00" fill="white">ch</text>
</g>
<!-- Node0x4839b60 -->
<g id="node4" class="node"><title>Node0x4839b60</title>
<path fill="none" stroke="white" stroke-width="3" d="M91.5,-115.5C91.5,-115.5 171.5,-115.5 171.5,-115.5 177.5,-115.5 183.5,-121.5 183.5,-127.5 183.5,-127.5 183.5,-181.5 183.5,-181.5 183.5,-187.5 177.5,-193.5 171.5,-193.5 171.5,-193.5 91.5,-193.5 91.5,-193.5 85.5,-193.5 79.5,-187.5 79.5,-181.5 79.5,-181.5 79.5,-127.5 79.5,-127.5 79.5,-121.5 85.5,-115.5 91.5,-115.5"/>
<text text-anchor="middle" x="105.5" y="-176.7" font-family="Calibri" font-size="16.00" fill="white">0</text>
<polyline fill="none" stroke="white" stroke-width="3" points="131.5,-167.5 131.5,-193.5 "/>
<text text-anchor="middle" x="157.5" y="-176.7" font-family="Calibri" font-size="16.00" fill="white">1</text>
<polyline fill="none" stroke="white" stroke-width="3" points="79.5,-167.5 183.5,-167.5 "/>
<text text-anchor="middle" x="131.5" y="-150.7" font-family="Calibri" font-size="16.00" fill="white">MUL [ORD=2]</text>
<polyline fill="none" stroke="white" stroke-width="3" points="79.5,-141.5 183.5,-141.5 "/>
<text text-anchor="middle" x="131.5" y="-124.7" font-family="Calibri" font-size="16.00" fill="white">i32</text>
</g>
<!-- Node0x4839b60&#45;&gt;Node0x4839638 -->
<g id="edge1" class="edge"><title>Node0x4839b60:s0&#45;&gt;Node0x4839638:d0</title>
<path fill="none" stroke="white" stroke-width="3" d="M105.5,-194C105.5,-222.301 57.3711,-204.048 44.5869,-219.983"/>
<polygon fill="white" stroke="white" stroke-width="3" points="41.1001,-219.413 41.5,-230 47.7897,-221.474 41.1001,-219.413"/>
</g>
<!-- Node0x4839b60&#45;&gt;Node0x4839848 -->
<g id="edge2" class="edge"><title>Node0x4839b60:s1&#45;&gt;Node0x4839848:d0</title>
<path fill="none" stroke="white" stroke-width="3" d="M184.5,-180.5C195.088,-180.5 178.887,-216.308 176.29,-233.932"/>
<polygon fill="white" stroke="white" stroke-width="3" points="173.001,-235.133 179.5,-243.5 179.637,-232.906 173.001,-235.133"/>
</g>
<!-- Node0x4839c68 -->
<g id="node5" class="node"><title>Node0x4839c68</title>
<path fill="none" stroke="white" stroke-width="3" d="M143,-0.5C143,-0.5 232,-0.5 232,-0.5 238,-0.5 244,-6.5 244,-12.5 244,-12.5 244,-66.5 244,-66.5 244,-72.5 238,-78.5 232,-78.5 232,-78.5 143,-78.5 143,-78.5 137,-78.5 131,-72.5 131,-66.5 131,-66.5 131,-12.5 131,-12.5 131,-6.5 137,-0.5 143,-0.5"/>
<text text-anchor="middle" x="159" y="-61.7" font-family="Calibri" font-size="16.00" fill="white">0</text>
<polyline fill="none" stroke="white" stroke-width="3" points="187,-52.5 187,-78.5 "/>
<text text-anchor="middle" x="215.5" y="-61.7" font-family="Calibri" font-size="16.00" fill="white">1</text>
<polyline fill="none" stroke="white" stroke-width="3" points="131,-52.5 244,-52.5 "/>
<text text-anchor="middle" x="187.5" y="-35.7" font-family="Calibri" font-size="16.00" fill="white">ADDrr [ORD=3]</text>
<polyline fill="none" stroke="white" stroke-width="3" points="131,-26.5 244,-26.5 "/>
<text text-anchor="middle" x="187.5" y="-9.7" font-family="Calibri" font-size="16.00" fill="white">i32</text>
</g>
<!-- Node0x4839c68&#45;&gt;Node0x4839a58 -->
<g id="edge4" class="edge"><title>Node0x4839c68:s1&#45;&gt;Node0x4839a58:d0</title>
<path fill="none" stroke="white" stroke-width="3" d="M245.5,-65.5C271.307,-65.5 213.736,-100.938 197.854,-118.656"/>
<polygon fill="white" stroke="white" stroke-width="3" points="194.524,-119.752 200.5,-128.5 201.284,-117.934 194.524,-119.752"/>
</g>
<!-- Node0x4839c68&#45;&gt;Node0x4839b60 -->
<g id="edge3" class="edge"><title>Node0x4839c68:s0&#45;&gt;Node0x4839b60:d0</title>
<path fill="none" stroke="white" stroke-width="3" d="M158.5,-79C158.5,-98.4797 176.995,-96.6385 183.5,-115 183.877,-116.063 184.359,-117.203 184.854,-118.352"/>
<polygon fill="white" stroke="white" stroke-width="3" points="181.351,-118.384 184.5,-128.5 188.346,-118.628 181.351,-118.384"/>
</g>
</g>
</svg>
